<svg width="280" height="298" viewBox="0 0 280 298" fill="none" xmlns="http://www.w3.org/2000/svg">
<path opacity="0.1" d="M129.18 297.5V189.03C129.18 139.1 118.456 97.7783 97.0098 65.0652C74.7053 32.3522 42.5354 10.8304 0.5 0.5V45.6956C26.236 52.5826 44.6801 65.4956 55.8323 84.4348C66.9845 102.513 73.4185 126.187 75.1342 155.457H26.236V297.5H129.18ZM279.5 297.5V189.03C279.5 139.1 268.777 97.7783 247.33 65.0652C225.026 32.3522 192.856 10.8304 150.82 0.5V45.6956C176.556 52.5826 195 65.4956 206.153 84.4348C217.305 102.513 223.739 126.187 225.454 155.457H176.556V297.5H279.5Z" fill="#1572D3"/>
</svg>
